PathFileType	4	(X/Y/Z)	C:/Users/opensim2020/Desktop/walking_exp_matlab/subject03_walking15_straight_04.trc																																																																																																																																											
DataRate	CameraRate	NumFrames	NumMarkers	Units	OrigDataRate	OrigDataStartFrame	OrigNumFrames																																																																																																																																							
100	100	9	47	mm	100	2321	182																																																																																																																																							
Frame#	Time	LFHD			RFHD			LBHD			RBHD			C7			T10			CLAV			STRN			RBAK			LSHO			LUPA			LELB			LFRM			LWRA			LWRB			LFIN			RSHO			RUPA			RELB			RFRM			RWRA			RWRB			RFIN			LASI			RASI			LPSI			RPSI			LTHI			LKNE			LTIB			LANK			LHEE			LTOE			RTHI			RKNE			RTIB			RANK			RHEE			RTOE			*39			*40			*41			*42			*43			*44			*45			*46		
		X1	Y1	Z1	X2	Y2	Z2	X3	Y3	Z3	X4	Y4	Z4	X5	Y5	Z5	X6	Y6	Z6	X7	Y7	Z7	X8	Y8	Z8	X9	Y9	Z9	X10	Y10	Z10	X11	Y11	Z11	X12	Y12	Z12	X13	Y13	Z13	X14	Y14	Z14	X15	Y15	Z15	X16	Y16	Z16	X17	Y17	Z17	X18	Y18	Z18	X19	Y19	Z19	X20	Y20	Z20	X21	Y21	Z21	X22	Y22	Z22	X23	Y23	Z23	X24	Y24	Z24	X25	Y25	Z25	X26	Y26	Z26	X27	Y27	Z27	X28	Y28	Z28	X29	Y29	Z29	X30	Y30	Z30	X31	Y31	Z31	X32	Y32	Z32	X33	Y33	Z33	X34	Y34	Z34	X35	Y35	Z35	X36	Y36	Z36	X37	Y37	Z37	X38	Y38	Z38	X39	Y39	Z39	X40	Y40	Z40	X41	Y41	Z41	X42	Y42	Z42	X43	Y43	Z43	X44	Y44	Z44	X45	Y45	Z45	X46	Y46	Z46	X47	Y47	Z47
																																																																																																																																														
160	1.59	868.90326	1593.73657	918.8075	869.09082	1612.5802	1050.55017	739.57257	1554.37622	929.38934	745.48688	1572.1217	1058.22668	711.22504	1392.72986	995.78192	702.60999	1076.50122	991.87415	836.80157	1325.5686	1002.67688	895.39575	1165.6084	1003.84747	667.29852	1210.27271	1088.96472	797.40985	1357.06787	843.60773	778.5437	1157.16101	776.11841	765.8725	1034.25244	766.77283	757.42438	903.18762	764.87085	731.91614	783.11127	790.0033	725.99927	796.16968	734.14868	682.90704	716.70459	743.42755	779.83746	1346.27319	1159.96753	816.63104	1129.01086	1236.11646	858.07196	1024.65112	1249.39929	925.0509	905.91852	1245.44275	994.29785	838.6189	1209.07166	963.35065	813.01849	1244.34802	1020.09595	768.81384	1239.28345	893.72308	925.21033	903.35925	851.77728	920.53113	1136.04529	725.18494	938.69098	921.79193	701.13556	947.96381	1070.03235	918.91339	631.78815	857.28064	987.36328	474.6459	908.63574	977.11206	273.34842	900.02264	983.28479	64.8304	937.86169	938.86426	31.23309	968.47089	1131.12256	32.28142	975.19861	762.48993	626.54962	1171.89343	752.64624	445.14169	1149.27429	611.15717	307.51013	1130.62915	474.74533	144.25336	1064.12781	430.67896	150.42198	1007.01709	564.54529	28.69463	1036.22058	787.83569	1661.03442	966.97833	NaN	NaN	NaN	NaN	NaN	NaN	NaN	NaN	NaN	NaN	NaN	NaN	NaN	NaN	NaN	NaN	NaN	NaN	NaN	NaN	NaN
161	1.6	880.07794	1594.28638	918.4505	880.05676	1613.02197	1050.16357	750.6947	1554.84827	928.93317	756.52002	1572.55176	1057.82031	722.80621	1393.1178	995.40454	714.69818	1076.75439	991.64063	848.51373	1326.22534	1002.10889	907.60248	1166.44177	1003.15564	679.27557	1210.50623	1088.2782	809.08813	1358.24146	843.22504	790.87738	1158.48413	775.2453	778.59894	1035.3656	766.25812	770.91162	904.39563	764.72406	745.4895	784.24982	789.9859	740.45294	797.12994	733.99969	699.00403	717.04626	742.46289	791.61438	1346.66479	1159.42114	827.77673	1128.92664	1234.70862	868.65009	1024.21936	1248.12024	933.18488	903.89221	1245.11755	1000.90106	834.59155	1209.38135	969.22583	810.20892	1244.91736	1024.77869	764.29437	1240.41736	906.74316	927.03888	903.22131	865.94592	921.41382	1134.26575	737.83679	940.02551	921.74896	713.75171	947.82526	1069.88135	932.72632	633.10809	857.47253	1001.57751	475.39774	909.53119	984.88666	274.23975	899.73267	983.73138	65.23316	937.81232	939.19055	31.44558	968.0575	1131.69592	31.77452	974.6651	779.39996	625.42078	1174.03088	773.27222	443.94711	1153.97168	628.16943	310.92078	1134.07373	487.84753	151.87184	1066.6377	445.69025	161.76291	1008.74304	566.66644	28.89731	1036.49402	798.82684	1661.58093	966.55835	NaN	NaN	NaN	NaN	NaN	NaN	NaN	NaN	NaN	NaN	NaN	NaN	NaN	NaN	NaN	NaN	NaN	NaN	NaN	NaN	NaN
162	1.61	890.98157	1594.87585	918.03186	890.9278	1613.33899	1049.82642	761.75934	1555.07825	928.48236	767.63684	1572.87439	1057.7522	734.26691	1393.35913	995.07953	726.50867	1076.99316	991.20837	860.2049	1326.75159	1001.62811	919.70386	1167.12146	1002.59198	691.04785	1210.91052	1088.10046	820.51556	1359.37708	843.08533	802.86951	1159.80664	774.37402	791.54828	1036.49121	765.67987	784.91956	905.5047	764.54272	759.91846	785.36511	789.88617	755.47211	798.02863	733.85358	716.14246	717.14459	741.72443	803.24878	1347.15918	1158.86218	838.92407	1129.06604	1233.44958	878.99023	1023.97101	1247.02429	940.95288	902.09686	1244.84009	1006.99274	830.38959	1209.50574	974.91119	807.54395	1245.67615	1028.79407	759.84314	1241.51685	919.36847	928.67126	902.92072	877.99182	921.66846	1133.69824	750.05872	941.1842	921.63715	725.97717	947.60114	1069.68237	947.32538	634.37964	857.62805	1013.00745	475.27557	909.65338	991.38867	274.23404	899.74585	984.01605	65.59732	937.90363	939.19464	31.46625	967.80853	1131.9082	31.45175	975.31158	796.58716	624.19116	1176.1416	794.66071	442.77548	1157.81763	646.40967	314.25684	1138.14465	502.90808	158.78462	1069.98792	462.54248	172.74022	1011.7663	569.18719	29.13317	1037.54944	809.06696	1662.13721	964.92761	NaN	NaN	NaN	NaN	NaN	NaN	NaN	NaN	NaN	NaN	NaN	NaN	NaN	NaN	NaN	NaN	NaN	NaN	NaN	NaN	NaN
163	1.62	901.88879	1595.02539	917.7453	901.70276	1613.70496	1049.44141	772.56744	1555.00415	928.20575	778.43091	1572.80164	1057.2063	745.74023	1393.29004	994.18188	738.26257	1077.22852	990.75488	871.74109	1327.15356	1001.30908	931.51233	1167.66821	1002.17719	702.83002	1211.19641	1087.89587	832.0932	1360.3429	842.90179	814.97662	1161.11792	773.47021	804.76251	1037.63391	764.89972	799.30505	906.55951	764.30109	775.11029	786.2887	789.89392	771.21045	798.76648	733.79608	734.32025	717.05756	741.15039	814.73798	1347.68896	1158.42151	849.98309	1129.2915	1232.30212	889.30035	1023.875	1245.78882	948.47089	900.46936	1244.66919	1012.47559	826.50525	1209.54968	980.14514	805.17334	1246.56189	1032.42627	755.51929	1242.53223	931.6405	930.02338	902.55316	889.93475	921.95044	1133.0647	762.38422	942.05188	921.41656	737.79877	947.12909	1069.29578	961.49878	635.69171	857.58582	1022.53619	474.67642	909.10803	996.79205	273.74094	899.91541	984.15082	65.62574	938.05676	939.14728	31.55106	967.76495	1132.07239	31.21032	975.47418	813.7821	622.89001	1177.92847	816.96204	441.06021	1160.91675	666.90009	316.57077	1140.67798	520.24255	164.78578	1073.4469	480.5683	183.65439	1016.09625	572.70282	30.59984	1038.42444	820.42004	1661.96716	965.70343	NaN	NaN	NaN	NaN	NaN	NaN	NaN	NaN	NaN	NaN	NaN	NaN	NaN	NaN	NaN	NaN	NaN	NaN	NaN	NaN	NaN
164	1.63	912.54608	1595.38477	917.39752	912.41058	1614.12061	1049.08447	783.39581	1554.89807	927.95764	789.26282	1572.80383	1056.96924	756.75079	1393.26453	993.88428	750.01428	1077.44666	990.20062	883.05884	1327.50195	1001.05792	943.07135	1168.12048	1002.01141	714.315	1211.55627	1088.01392	843.56519	1361.1582	842.79279	827.06146	1162.16809	772.61017	818.02972	1038.52466	764.06696	814.02264	907.34784	763.97321	790.94641	786.96271	789.90271	787.55261	799.24249	733.67267	753.27551	716.65979	740.80194	825.93982	1348.2644	1158.18286	860.94641	1129.56982	1231.45386	899.37531	1023.68451	1244.81665	955.73883	898.90179	1244.59888	1017.76599	822.73016	1209.84387	985.05457	802.86786	1247.45764	1035.63647	751.1795	1243.36804	943.58167	931.10382	902.23236	901.53564	922.09662	1132.62354	774.33234	942.61536	921.04321	749.33972	946.5907	1068.77747	974.14221	636.95245	856.99377	1030.55579	473.50797	908.36145	1001.3053	273.14218	899.92914	984.55682	65.83762	938.10303	939.13275	31.64895	967.6817	1132.19971	31.03709	975.77362	830.79901	621.33246	1179.01917	839.32251	439.70898	1162.8938	689.25513	317.43607	1143.46899	538.39417	170.47693	1076.92542	499.23993	193.78932	1020.53223	580.21326	34.41198	1040.30493	831.80048	1663.06384	961.67963	NaN	NaN	NaN	NaN	NaN	NaN	NaN	NaN	NaN	NaN	NaN	NaN	NaN	NaN	NaN	NaN	NaN	NaN	NaN	NaN	NaN
165	1.64	923.17542	1595.71155	917.06982	923.03235	1614.59668	1048.77026	794.06982	1554.8418	927.8288	800.04401	1572.93909	1056.77734	767.3681	1393.38318	994.06769	761.76611	1077.61206	989.60425	894.20361	1327.85742	1000.96863	954.3009	1168.48071	1002.02734	725.6283	1211.89124	1088.02295	854.90344	1361.62292	842.77814	839.09161	1162.9248	771.87573	831.2793	1039.12708	763.19427	829.18481	907.97321	763.49194	807.4209	787.40942	789.77118	804.28772	799.47113	733.60938	773.27747	716.12482	740.44495	837.08435	1348.54932	1157.77954	871.7027	1129.7085	1230.78369	909.17548	1023.37323	1244.19446	962.84033	897.29749	1244.61108	1022.8396	818.99384	1210.15381	989.93475	800.77551	1248.64368	1038.51648	746.78357	1244.00574	955.36383	931.88007	902.05566	912.78235	922.04761	1132.50049	786.32007	942.97327	920.49756	760.59247	945.83502	1068.08032	983.97473	637.36371	856.40814	1038.22559	472.1283	907.63385	1005.53552	272.72043	899.86273	984.86707	65.87939	938.30945	939.14624	31.81333	967.71973	1132.29907	30.87083	976.07184	847.42621	620.0921	1179.94495	861.39148	438.80643	1164.78735	713.39435	316.46658	1146.36926	556.70789	176.56242	1079.57178	517.73499	202.05133	1023.2948	592.62732	39.80923	1044.22314	841.2547	1662.25537	964.80994	NaN	NaN	NaN	NaN	NaN	NaN	NaN	NaN	NaN	NaN	NaN	NaN	NaN	NaN	NaN	NaN	NaN	NaN	NaN	NaN	NaN
166	1.65	933.7262	1596.32788	916.64691	933.6424	1615.13306	1048.40747	804.64313	1554.91089	927.7417	810.77777	1573.15735	1056.62585	778.27814	1393.52393	993.8194	773.18823	1077.7594	988.99164	905.08105	1328.20093	1000.94489	965.41266	1168.81433	1002.12811	736.59198	1212.26831	1088.14209	866.16571	1362.0387	842.69281	851.44147	1163.48755	771.16052	845.14166	1039.64282	762.19586	844.5564	908.34247	762.9986	824.1004	787.70239	789.57123	821.5498	799.4942	733.35388	793.92676	715.37756	740.1936	847.89087	1348.86096	1157.6217	882.2309	1129.7749	1230.34631	918.82922	1022.94452	1243.60046	969.67328	895.67212	1244.75989	1027.53882	815.33099	1210.59485	994.57794	798.53259	1249.72998	1041.25269	742.65009	1244.78369	966.84924	932.37537	902.02429	923.6225	921.8916	1132.5968	797.82672	943.27783	919.83307	771.59216	944.96887	1067.3645	991.77478	636.72778	855.95282	1045.41614	470.7648	907.18359	1009.82513	272.35403	899.79333	985.2605	65.94788	938.34619	939.16223	31.98342	967.69647	1132.40234	30.72973	976.3902	863.46875	619.34039	1180.50708	883.63782	438.28461	1166.62183	736.87469	316.0798	1150.08923	575.28888	183.20985	1081.55615	536.47382	208.14336	1024.19983	610.21307	45.50894	1049.85852	852.47803	1663.39001	961.09662	NaN	NaN	NaN	NaN	NaN	NaN	NaN	NaN	NaN	NaN	NaN	NaN	NaN	NaN	NaN	NaN	NaN	NaN	NaN	NaN	NaN
167	1.66	944.08661	1596.49915	916.54401	944.16858	1615.67322	1048.14282	815.22943	1555.06946	927.58112	821.40588	1573.49597	1056.52295	789.20569	1393.79956	993.17548	784.14148	1078.13452	988.88647	915.80243	1328.56726	1001.00854	976.23425	1169.20142	1002.32324	747.42236	1212.44031	1087.94739	877.30298	1362.27332	842.74994	863.87976	1163.82971	770.65375	858.58154	1039.77429	761.35864	860.3316	908.58008	762.38605	842.51611	788.11151	789.02625	839.2027	799.3847	733.15204	815.26544	714.5943	740.05365	858.53925	1349.0127	1157.60083	892.48596	1129.69092	1230.03467	928.18109	1022.37994	1243.29016	976.28821	894.01031	1245.01929	1032.05347	811.79144	1211.09314	998.96881	796.33044	1250.7998	1043.86145	738.68115	1245.56531	978.0473	932.63629	901.9375	934.22876	921.78784	1132.82959	809.23615	943.43073	919.08661	782.4967	944.1759	1066.61267	998.8288	635.33185	855.77472	1052.3844	469.52563	907.00739	1014.09735	271.93442	899.71649	985.58832	66.00273	938.42468	939.1615	32.15636	967.61865	1132.45166	30.58506	976.62708	878.89667	619.21753	1180.75269	906.15564	438.52209	1168.59106	759.97424	317.39838	1151.82813	595.21265	189.35165	1082.97742	556.49512	212.42902	1024.38281	630.9552	50.48014	1056.30957	861.992	1662.79053	963.90271	NaN	NaN	NaN	NaN	NaN	NaN	NaN	NaN	NaN	NaN	NaN	NaN	NaN	NaN	NaN	NaN	NaN	NaN	NaN	NaN	NaN
168	1.67	954.49463	1596.93091	916.31067	954.67798	1616.24902	1047.89575	825.69025	1555.39893	927.61633	831.99213	1573.85217	1056.40027	799.97028	1394.35706	993.00665	794.97083	1078.43518	988.73108	926.39508	1328.96741	1001.14539	986.9248	1169.6156	1002.55298	758.10925	1212.58325	1087.60901	888.23816	1362.39893	842.79938	876.39362	1163.91589	770.40997	872.53308	1039.8844	760.52179	876.33923	908.73352	761.82574	860.94507	788.2489	788.66467	857.12378	799.14771	732.8808	836.90997	713.74072	740.24121	869.05176	1349.16736	1157.77063	902.52368	1129.51855	1229.77808	937.30719	1021.729	1243.14624	982.62311	892.32941	1245.35327	1036.33337	808.4306	1211.71777	1003.05444	794.21771	1251.86768	1046.41821	735.1153	1246.56079	988.90967	932.72021	901.80707	944.77258	921.84515	1133.08301	820.02502	943.84747	918.39459	793.33234	943.58069	1065.98022	1005.83545	633.76807	856.10315	1058.99219	468.27588	907.03876	1018.14209	271.47372	899.68866	985.91321	66.04532	938.36798	939.17438	32.35201	967.42554	1132.62573	30.60833	976.6358	894.18408	619.76709	1180.92407	928.68011	439.77866	1170.51868	782.60901	320.05258	1152.24243	616.59082	194.08459	1084.4292	577.94434	215.03543	1024.48279	653.79425	54.64708	1063.11768	872.42627	1663.16382	963.70605	NaN	NaN	NaN	NaN	NaN	NaN	NaN	NaN	NaN	NaN	NaN	NaN	NaN	NaN	NaN	NaN	NaN	NaN	NaN	NaN	NaN
